<?xml version="1.0" encoding="utf-8"?>
<!-- Uploaded to: SVG Repo, www.svgrepo.com, Generator: SVG Repo Mixer Tools -->
<svg width="800px" height="800px" viewBox="0 0 1024 1024" class="icon"  version="1.1" xmlns="http://www.w3.org/2000/svg"><path d="M716.8 691.2c-140.8 0-262.4-115.2-262.4-256 0-83.2 38.4-153.6 96-198.4-140.8 0-249.6 115.2-249.6 256s115.2 262.4 262.4 262.4c64 0 121.6-25.6 166.4-57.6-6.4-6.4-6.4-6.4-12.8-6.4z" fill="#FDD000" /><path d="M582.4 422.4h-51.2c-6.4 0-6.4-6.4-6.4-6.4 0-6.4 6.4-6.4 6.4-6.4h51.2c6.4 0 6.4 6.4 6.4 6.4 0 6.4 0 6.4-6.4 6.4z" fill="#17A09A" /><path d="M556.8 448c-6.4 0-6.4-6.4-6.4-6.4v-51.2c0-6.4 0-6.4 6.4-6.4s6.4 0 6.4 6.4v44.8c0 6.4 0 12.8-6.4 12.8zM710.4 332.8h-57.6c-6.4 0-6.4-6.4-6.4-6.4 0-6.4 6.4-6.4 6.4-6.4h57.6c6.4 0 6.4 6.4 6.4 6.4 6.4 0 0 6.4-6.4 6.4z" fill="#17A09A" /><path d="M684.8 358.4c-6.4 0-6.4-6.4-6.4-6.4v-57.6c0-6.4 6.4-6.4 6.4-6.4 6.4 0 6.4 6.4 6.4 6.4v51.2c0 6.4 0 12.8-6.4 12.8z" fill="#17A09A" /><path d="M710.4 569.6h-51.2c-6.4 0-6.4-6.4-6.4-6.4 0-6.4 6.4-6.4 6.4-6.4h51.2c6.4 0 6.4 6.4 6.4 6.4s0 6.4-6.4 6.4z" fill="#17A09A" /><path d="M684.8 588.8c-6.4 0-6.4-6.4-6.4-6.4v-51.2c0-6.4 6.4-6.4 6.4-6.4 6.4 0 6.4 6.4 6.4 6.4v51.2c0 6.4 0 6.4-6.4 6.4z" fill="#17A09A" /><path d="M377.6 768h-44.8c-6.4 0-6.4-6.4-6.4-6.4 0-6.4 6.4-6.4 6.4-6.4h44.8c6.4 0 6.4 6.4 6.4 6.4 6.4 0 0 6.4-6.4 6.4z" fill="#17A09A" /><path d="M358.4 787.2c-6.4 0-6.4-6.4-6.4-6.4v-44.8c0-6.4 6.4-6.4 6.4-6.4 6.4 0 6.4 6.4 6.4 6.4v44.8c0 6.4-6.4 6.4-6.4 6.4z" fill="#17A09A" /></svg>