<?xml version="1.0" encoding="utf-8"?>
<!-- Uploaded to: SVG Repo, www.svgrepo.com, Generator: SVG Repo Mixer Tools -->
<svg width="800px" height="800px" viewBox="0 0 1024 1024" class="icon"  version="1.1" xmlns="http://www.w3.org/2000/svg"><path d="M512 524.8m-236.8 0a236.8 236.8 0 1 0 473.6 0 236.8 236.8 0 1 0-473.6 0Z" fill="#FDD000" /><path d="M512 243.2c-6.4 0-19.2-6.4-19.2-19.2V147.2c0-12.8 12.8-19.2 19.2-19.2 6.4 0 19.2 6.4 19.2 19.2v76.8c0 12.8-12.8 19.2-19.2 19.2zM518.4 896c-6.4 0-19.2-6.4-19.2-19.2v-76.8c0-12.8 6.4-19.2 19.2-19.2 6.4 0 19.2 6.4 19.2 19.2v76.8c-6.4 12.8-12.8 19.2-19.2 19.2z" fill="#FDD000" /><path d="M876.8 537.6h-76.8c-6.4 0-19.2-6.4-19.2-19.2 0-12.8 6.4-19.2 19.2-19.2h76.8c12.8 0 19.2 12.8 19.2 19.2 0 12.8-6.4 19.2-19.2 19.2zM224 537.6H147.2c-12.8 0-19.2-6.4-19.2-12.8 0-12.8 6.4-19.2 19.2-19.2h76.8c6.4 0 19.2 6.4 19.2 19.2 0 6.4-6.4 12.8-19.2 12.8z" fill="#FDD000" /><path d="M716.8 332.8c-6.4 0-6.4 0-12.8-6.4s-6.4-19.2 0-25.6l57.6-57.6c6.4-6.4 19.2-6.4 25.6 0 6.4 6.4 6.4 19.2 0 25.6l-57.6 57.6c-6.4 6.4-12.8 6.4-12.8 6.4zM256 800c-6.4 0-6.4 0-12.8-6.4s-6.4-19.2 0-25.6l57.6-57.6c6.4-6.4 19.2-6.4 25.6 0 6.4 6.4 6.4 19.2 0 25.6l-57.6 57.6c-6.4 0-6.4 6.4-12.8 6.4z" fill="#FDD000" /><path d="M768 800c-6.4 0-6.4 0-12.8-6.4l-57.6-57.6c-6.4-6.4-6.4-19.2 0-25.6 6.4-6.4 19.2-6.4 25.6 0l57.6 57.6c6.4 6.4 6.4 19.2 0 25.6-6.4 6.4-12.8 6.4-12.8 6.4zM300.8 339.2c-6.4 0-6.4 0-12.8-6.4l-51.2-51.2c-6.4-6.4-6.4-19.2 0-25.6 6.4-6.4 12.8-6.4 19.2 0l57.6 57.6c6.4 6.4 6.4 12.8 0 19.2 0 6.4-6.4 6.4-12.8 6.4z" fill="#FDD000" /></svg>